<svg width="54" height="61" viewBox="0 0 54 61" fill="none" xmlns="http://www.w3.org/2000/svg">
<g class="chevron1">
<path d="M1.69786 20.8875L25.7339 45.1685C26.0773 45.5158 26.4735 45.6908 26.9227 45.6931C27.3719 45.6954 27.7707 45.5244 28.1178 45.1806L52.3984 21.1462C52.7462 20.8019 52.9207 20.4057 52.923 19.9563C52.9253 19.5071 52.7543 19.1086 52.4105 18.7614L49.8323 16.157C49.4885 15.8097 49.0918 15.6349 48.6425 15.6327C48.1933 15.6304 47.7948 15.801 47.4475 16.1448L26.9701 36.4139L6.69987 15.9356C6.35628 15.5883 5.95932 15.4147 5.51083 15.4124C5.06088 15.4101 4.66235 15.5807 4.31524 15.9234L1.71021 18.5025C1.36309 18.8461 1.18947 19.2431 1.18718 19.6921C1.1847 20.1417 1.35426 20.5402 1.69786 20.8875Z" fill="black"/>
</g>
<g class="chevron2">
<path d="M1.69786 6.27974L25.7339 30.5607C26.0773 30.908 26.4735 31.0831 26.9227 31.0853C27.3719 31.0876 27.7707 30.9166 28.1178 30.5729L52.3984 6.53846C52.7462 6.19414 52.9207 5.79792 52.923 5.34852C52.9253 4.8993 52.7543 4.50077 52.4105 4.15365L49.8323 1.54917C49.4885 1.20187 49.0918 1.02716 48.6425 1.02486C48.1933 1.02257 47.7948 1.19322 47.4475 1.537L26.9701 21.8061L6.69987 1.3278C6.35628 0.980499 5.95932 0.806882 5.51083 0.804594C5.06088 0.802298 4.66235 0.972944 4.31524 1.31563L1.71021 3.89475C1.36309 4.23835 1.18947 4.6353 1.18718 5.08434C1.1847 5.53392 1.35426 5.93244 1.69786 6.27974Z" fill="black"/>
</g>
<g class="chevron3">
<path d="M1.69786 35.4952L25.7339 59.7761C26.0773 60.1234 26.4735 60.2985 26.9227 60.3008C27.3719 60.3031 27.7707 60.1321 28.1178 59.7883L52.3984 35.7539C52.7462 35.4096 52.9207 35.0134 52.923 34.564C52.9253 34.1148 52.7543 33.7162 52.4105 33.3691L49.8323 30.7646C49.4885 30.4173 49.0918 30.2426 48.6425 30.2403C48.1933 30.238 47.7948 30.4087 47.4475 30.7525L26.9701 51.0216L6.69987 30.5433C6.35627 30.196 5.95932 30.0223 5.51083 30.02C5.06089 30.0178 4.66235 30.1884 4.31524 30.5311L1.71021 33.1102C1.36309 33.4538 1.18947 33.8508 1.18718 34.2998C1.1847 34.7494 1.35426 35.1479 1.69786 35.4952Z" fill="black"/>
</g>
</svg>
