<svg width="138" height="138" viewBox="0 0 138 138" fill="none" xmlns="http://www.w3.org/2000/svg">
<g clip-path="url(#clip0_191_462)">
<path d="M102.749 34.3051C121.649 53.2051 121.649 83.8482 102.749 102.748C83.8486 121.648 53.2056 121.648 34.3055 102.748C15.4054 83.8482 15.4054 53.2051 34.3055 34.3051C53.2056 15.405 83.8486 15.405 102.749 34.3051Z" fill="#FCF3EA"/>
<path d="M86.2084 67.9563C86.3596 68.1076 86.4446 68.3128 86.4446 68.5267C86.4446 68.7406 86.3596 68.9458 86.2084 69.097L81.0751 74.2303C80.9239 74.3816 80.7187 74.4665 80.5048 74.4665C80.2909 74.4665 80.0857 74.3816 79.9344 74.2303C79.7831 74.079 79.6982 73.8738 79.6982 73.6599C79.6982 73.446 79.7831 73.2408 79.9344 73.0896L84.4973 68.5267L79.9344 63.9638C79.7831 63.8125 79.6982 63.6074 79.6982 63.3934C79.6982 63.1795 79.7831 62.9744 79.9344 62.8231C80.0857 62.6718 80.2908 62.5868 80.5048 62.5868C80.7187 62.5868 80.9239 62.6718 81.0751 62.8231L86.2084 67.9563ZM51.4164 67.7202L85.638 67.7202L85.638 69.3332L51.4164 69.3332L51.4164 67.7202Z" fill="black"/>
</g>
<defs>
<clipPath id="clip0_191_462">
<rect width="96.7933" height="97.5999" fill="white" transform="matrix(0.707107 -0.707107 -0.707107 -0.707107 69.0137 137.456)"/>
</clipPath>
</defs>
</svg>
