<svg width="55" height="49" viewBox="0 0 55 49" fill="none" xmlns="http://www.w3.org/2000/svg">
<path d="M27.2139 47.9415H36.8913V40.6311C36.8914 40.5964 36.8827 40.5622 36.866 40.5317L32.1049 31.8375C32.0887 31.808 32.08 31.7751 32.0794 31.7415C32.0789 31.708 32.0866 31.6748 32.1018 31.6449L36.8691 22.2137C36.8837 22.1847 36.8912 22.1528 36.8913 22.1204V0.413193L27.2139 1.81502V47.9415Z" fill="#1D1D1B"/>
<path d="M35.5255 31.8447L43.731 15.5423H54.3554L45.6252 31.8529C45.6085 31.8833 45.5997 31.9174 45.5997 31.952C45.5997 31.9867 45.6085 32.0208 45.6252 32.0512L47.8319 36.0023H37.6277L35.5281 32.0589C35.5106 32.026 35.5012 31.9894 35.5007 31.9521C35.5003 31.9148 35.5088 31.878 35.5255 31.8447Z" fill="#1D1D1B"/>
<path d="M44.8367 48.4586C47.3917 48.4586 49.4629 46.3873 49.4629 43.8323C49.4629 41.2773 47.3917 39.2061 44.8367 39.2061C42.2817 39.2061 40.2105 41.2773 40.2105 43.8323C40.2105 46.3873 42.2817 48.4586 44.8367 48.4586Z" fill="#191818"/>
<path d="M24.2697 9.4777V1.71099L0.0229492 0.361687L2.11848 8.39929L24.2697 9.4777Z" fill="#1D1D1B"/>
<path d="M15.6079 26.5196C15.6603 26.5142 15.7127 26.529 15.7545 26.5611C15.7962 26.5932 15.8241 26.6401 15.8324 26.6921L17.6797 38.1951L24.2717 37.984V12.7495L17.5051 12.1315L15.837 19.7726C15.8271 19.8187 15.8017 19.8601 15.7649 19.8897C15.7282 19.9193 15.6824 19.9354 15.6352 19.9353H0.233063L2.83433 27.8076L15.6079 26.5196Z" fill="#1D1D1B"/>
<path d="M2.75966 40.9473H2.7576L0.0229492 47.3642L24.2697 47.89V41.1996L2.75966 40.9473Z" fill="#1D1D1B"/>
</svg>
