<svg id="Calque_1" data-name="Calque 1" xmlns="http://www.w3.org/2000/svg" viewBox="0 0 2000 2000"><defs><style>.cls-1{fill:#1d1d1b;}.cls-2{fill:#191818;}</style></defs><path class="cls-1" d="M1033.28,1416.34h187.91V1274.39a4,4,0,0,0-.49-1.93l-92.45-168.82a4,4,0,0,1-.06-3.74l92.57-183.13a4.05,4.05,0,0,0,.43-1.81V493.46l-187.91,27.22Z"/><path class="cls-1" d="M1194.67,1103.78,1354,787.23h206.3l-169.52,316.71a4,4,0,0,0,0,3.85l42.85,76.72H1235.49l-40.77-76.57A4.53,4.53,0,0,1,1194.67,1103.78Z"/><circle class="cls-2" cx="1375.47" cy="1336.55" r="89.83"/><polygon class="cls-1" points="976.11 669.47 976.11 518.66 505.3 492.46 545.99 648.53 976.11 669.47"/><path class="cls-1" d="M807.92,1000.38a4,4,0,0,1,4.36,3.35l35.87,223.36,128-4.1V733L844.76,721,812.37,869.37a4,4,0,0,1-3.92,3.16H509.38l50.51,152.86Z"/><polygon class="cls-1" points="558.44 1280.53 558.4 1280.53 505.3 1405.13 976.11 1415.34 976.11 1285.43 558.44 1280.53"/></svg>